<svg width="210" height="210" viewBox="0 0 210 210" fill="none" xmlns="http://www.w3.org/2000/svg">
<g id="behance_logo_icon_189229 1">
<path id="Vector" d="M166.802 20.4626H43.1976C30.6414 20.4626 20.4626 30.6414 20.4626 43.1976V166.802C20.4626 179.358 30.6414 189.537 43.1976 189.537H166.802C179.358 189.537 189.537 179.358 189.537 166.802V43.1976C189.537 30.6414 179.358 20.4626 166.802 20.4626Z" fill="#181818"/>
<path id="Vector_2" d="M146.557 75.2555H121.164V82.4619H146.557V75.2555Z" fill="#F5F4F0"/>
<path id="Vector_3" d="M97.8797 100.488C107.026 98.8271 106.083 88.1835 106.083 88.1835C105.32 73.7009 91.391 73.4958 91.391 73.4958H57.2988V134.199H90.4477C108.585 133.617 108.413 117.013 108.413 117.013C109.102 101.932 97.8797 100.488 97.8797 100.488ZM71.601 84.0492H86.6045C88.2062 84.0325 89.7722 84.5219 91.0793 85.4478C93.8232 87.4617 93.5402 91.0218 93.5402 91.0218C93.5402 91.0833 93.5402 91.1449 93.5402 91.2105C93.5402 95.0167 90.1729 97.9945 86.1328 97.9945H71.601V84.0492ZM95.308 115.369C95.3049 116.412 95.0945 117.444 94.6891 118.405C94.2837 119.367 93.6914 120.238 92.9465 120.968C92.2016 121.699 91.319 122.274 90.35 122.66C89.381 123.046 88.3448 123.236 87.3018 123.219H71.601V107.084H87.8063C89.5494 107.084 91.3377 107.547 92.6379 108.704C95.591 111.329 95.2998 115.151 95.2998 115.151C95.3039 115.225 95.308 115.295 95.308 115.369Z" fill="#F5F4F0"/>
<path id="Vector_4" d="M144.281 117.916C144.281 117.916 143.727 124.819 133.859 124.236C133.859 124.236 123.908 124.068 123.74 113.507H155.507C155.507 113.507 156.737 102.699 152.927 96.9609C152.927 96.9609 148.936 87.1171 134.47 86.8136C134.47 86.8136 117.063 85.6201 111.936 103.528C111.936 103.528 110.024 112.592 111.936 119.413C111.936 119.413 116.447 134.297 133.863 134.129C133.863 134.129 155.068 136.127 155.703 117.916H144.281ZM133.391 95.8207C133.391 95.8207 142.726 94.6599 144.002 105.357H124.043C124.043 105.357 123.834 97.4859 133.391 95.8207Z" fill="#F5F4F0"/>
</g>
</svg>
